<svg width="81" height="35" viewBox="0 0 81 35" fill="none" xmlns="http://www.w3.org/2000/svg">
<g clip-path="url(#clip0_1274_3309)">
<path d="M34.1332 28.3041C33.6854 28.6898 33.2434 29.084 32.8043 29.4825C29.1401 32.8064 24.007 34.7448 18.976 34.2485C10.2705 33.3878 3.43652 26.0182 3.43652 17.5155C3.43652 16.9753 3.46278 16.4364 3.51821 15.9004H10.4091C10.3099 16.4307 10.2588 16.971 10.2588 17.5155C10.2588 23.1324 14.9587 27.7014 20.7366 27.7014C24.2258 27.7014 27.3897 25.5928 29.9613 23.4543L34.1332 28.3041Z" fill="#05A52E"/>
<path d="M45.2397 19.3375C41.9839 21.9297 38.6741 24.4495 35.5 27.1311L31.3413 22.2941C31.4828 22.1764 31.6403 22.0459 31.811 21.9041C33.7277 20.3188 37.4503 17.2643 40.9789 14.3828L45.2397 19.3375Z" fill="#031541"/>
<path d="M80.7587 17.5163C80.7587 17.9757 80.7398 18.4352 80.7018 18.8918C80.1752 25.1879 75.8896 30.7991 69.8594 33.1417C62.6797 35.931 56.2819 33.258 50.6484 28.7699C48.4341 27.0058 45.775 25.0107 43.4717 23.1828L45.7852 21.3436L46.3263 20.9139L48.9768 18.8067C50.9869 20.4715 55.6751 24.3371 57.6385 25.8204C59.7011 27.3802 62.3267 28.0127 64.9042 27.6014C69.8754 26.8102 73.935 22.4638 73.935 17.5163C73.935 14.0548 71.8563 10.7578 68.9244 8.87043C67.1185 7.70763 65.2776 7.33326 63.4718 7.48357C60.3721 7.74308 57.3759 9.55251 54.829 11.5987C54.0749 12.2043 53.3222 12.8098 52.5695 13.4181L52.1305 12.9076L48.2941 8.44643C48.3525 8.39822 48.4093 8.35426 48.4633 8.3103C48.4721 8.30321 48.4794 8.29753 48.4881 8.29044C52.2194 5.31538 55.7597 1.72913 60.7338 0.915174C67.4657 -0.185231 74.393 2.92313 78.0499 8.48897C79.815 11.1762 80.7587 14.3299 80.7587 17.5163Z" fill="#05A52E"/>
<path d="M46.8795 9.58417L42.3762 13.2441L46.6604 18.2258L51.1636 14.5658L46.8795 9.58417Z" fill="#031541"/>
</g>
<defs>
<clipPath id="clip0_1274_3309">
<rect width="80.7588" height="33.6304" fill="white" transform="translate(0 0.695312)"/>
</clipPath>
</defs>
</svg>
